<?xml version="1.0" encoding="utf-8"?>
<!-- Generator: Adobe Illustrator 27.7.0, SVG Export Plug-In . SVG Version: 6.00 Build 0)  -->
<svg version="1.1" id="Layer_1" xmlns="http://www.w3.org/2000/svg" xmlns:xlink="http://www.w3.org/1999/xlink" x="0px" y="0px"
	 viewBox="0 0 589 133.5" style="enable-background:new 0 0 589 133.5;" xml:space="preserve">
<style type="text/css">
	.st0{clip-path:url(#SVGID_00000126285261938439964950000011522683169835573409_);fill:none;stroke:#231F20;}
	.st1{fill:#FFF200;}
	.st2{fill:none;stroke:#231F20;}
	.st3{fill:#D2232A;}
	.st4{clip-path:url(#SVGID_00000112609967149877076020000010012223089704165806_);fill:#FFFFFF;}
	.st5{clip-path:url(#SVGID_00000112609967149877076020000010012223089704165806_);fill:none;stroke:#231F20;}
	.st6{fill:#FFFFFF;}
	.st7{fill:#231F20;}
	.st8{font-family:'TimesNewRomanPSMT';}
	.st9{font-size:60px;}
	.st10{letter-spacing:-1;}
</style>
<polygon points="23.2,20.9 29.2,127.4 96.2,111.6 99.7,20.4 "/>
<g>
	<defs>
		<rect id="SVGID_1_" x="22.7" y="19.9" width="730.5" height="182"/>
	</defs>
	<clipPath id="SVGID_00000163766506073926572260000006841940690236159384_">
		<use xlink:href="#SVGID_1_"  style="overflow:visible;"/>
	</clipPath>
	<polygon style="clip-path:url(#SVGID_00000163766506073926572260000006841940690236159384_);fill:none;stroke:#231F20;" points="
		23.2,20.9 29.2,127.4 96.2,111.6 99.7,20.4 	"/>
</g>
<polygon class="st1" points="104,26.5 104,32.4 68.5,55.1 "/>
<polygon class="st2" points="104,26.5 104,32.4 68.5,55.1 "/>
<line class="st2" x1="104.5" y1="25.5" x2="104.5" y2="29.4"/>
<polyline class="st3" points="104.5,25.5 107.2,25.5 107.2,29.4 104,32.4 "/>
<polyline class="st2" points="104.5,25.5 107.2,25.5 107.2,29.4 104,32.4 "/>
<g>
	<defs>
		<rect id="SVGID_00000178163769879372196270000010835947993386751928_" x="22.7" y="19.9" width="730.5" height="182"/>
	</defs>
	<clipPath id="SVGID_00000029035487232197846500000008203249832851271057_">
		<use xlink:href="#SVGID_00000178163769879372196270000010835947993386751928_"  style="overflow:visible;"/>
	</clipPath>
	<path style="clip-path:url(#SVGID_00000029035487232197846500000008203249832851271057_);fill:#FFFFFF;" d="M45,46h4.2l3,3.6
		c0,0-3.2,0.3,3,0.3s6.2-0.3,6.2-0.3h5.8c0,0-3,0,0,0c3,0,5,6,5,6l-5,0.2l-1-0.2h-2h-2.8c-2.5,0-2.5-4.7-2.5-4.7
		c-4.8,0-6.8,4.7-6.8,4.7H45v-4.7V46z"/>
	<path style="clip-path:url(#SVGID_00000029035487232197846500000008203249832851271057_);fill:none;stroke:#231F20;" d="M45,46h4.2
		l3,3.6c0,0-3.2,0.3,3,0.3s6.2-0.3,6.2-0.3h5.8c0,0-3,0,0,0c3,0,5,6,5,6l-5,0.2l-1-0.2h-2h-2.8c-2.5,0-2.5-4.7-2.5-4.7
		c-4.8,0-6.8,4.7-6.8,4.7H45v-4.7V46z"/>
</g>
<polygon class="st6" points="37.3,74 45,77.1 54.2,77.6 61.4,78.1 72.9,76 77.2,73.5 77.4,75.8 77.2,81.1 72.9,85 61.4,85.4 
	52.2,88 45,88.4 37.3,80.8 "/>
<polygon class="st2" points="37.3,74 45,77.1 54.2,77.6 61.4,78.1 72.9,76 77.2,73.5 77.4,75.8 77.2,81.1 72.9,85 61.4,85.4 
	52.2,88 45,88.4 37.3,80.8 "/>
<text transform="matrix(1 0 0 1 125.1833 95.519)"><tspan x="0" y="0" class="st7 st8 st9">E</tspan><tspan x="37" y="0" class="st7 st8 st9">l</tspan><tspan x="53.7" y="0" class="st7 st8 st9">i</tspan><tspan x="70.2" y="0" class="st7 st8 st9">s</tspan><tspan x="93.9" y="0" class="st7 st8 st9">a</tspan><tspan x="120.2" y="0" class="st7 st8 st9">b</tspan><tspan x="150.6" y="0" class="st7 st8 st9">e</tspan><tspan x="177.3" y="0" class="st7 st8 st9">t</tspan><tspan x="194.2" y="0" class="st7 st8 st9">h </tspan><tspan x="239.2" y="0" class="st7 st8 st9">U</tspan><tspan x="282.2" y="0" class="st7 st8 st9">l</tspan><tspan x="298.7" y="0" class="st7 st8 st9">b</tspan><tspan x="328" y="0" class="st7 st8 st9">r</tspan><tspan x="348.3" y="0" class="st7 st8 st9">i</tspan><tspan x="365" y="0" class="st7 st8 st9">c</tspan><tspan x="391.3" y="0" class="st7 st8 st9 st10">h</tspan><tspan x="420.2" y="0" class="st7 st8 st9">t</tspan></text>
</svg>
